# xmcd
#
# Track frame offsets:
#	150
#	17704
#	35678
#	50816
#	74458
#	96197
#	123278
#	143732
#	161568
#	182420
#	212437
#
# Disc length: 3054 seconds
#
# Revision: 0
# Processed by: cddbd v1.5.2PL0 Copyright (c) Steve Scherf et al.
# Submitted via: dBpowerAMP V4.0
#
DISCID=970bec0b
DTITLE=Coco Montoya - Dirty Deal
DYEAR=2007
DGENRE=Blues
TTITLE0=Last Dirty Deal
TTITLE1=Three Sides To Every Story
TTITLE2=Love Gotcha
TTITLE3=How Do You Sleep At Night?
TTITLE4=It Takes Time
TTITLE5=It's My Own Tears
TTITLE6=Coin Operated Love
TTITLE7=Clean Slate
TTITLE8=Put The Shoe On The Other Foot
TTITLE9=It's All Your Fault
TTITLE10=Ain't No Brakeman
EXTD=
EXTT0=
EXTT1=
EXTT2=
EXTT3=
EXTT4=
EXTT5=
EXTT6=
EXTT7=
EXTT8=
EXTT9=
EXTT10=
PLAYORDER=
